<?xml version="1.0" encoding="UTF-8"?>
<svg viewBox="0 0 744.09448 652.35999" xmlns="http://www.w3.org/2000/svg">
 <defs>
  <linearGradient id="b" x1="578.16" x2="312.35" y1="644.07" y2="716.58" gradientUnits="userSpaceOnUse">
   <stop stop-color="#eeeeec" offset="0"/>
   <stop stop-color="#eeeeec" stop-opacity="0" offset="1"/>
  </linearGradient>
  <linearGradient id="a" x1="304.9" x2="425.08" y1="456.72" y2="579.14" gradientUnits="userSpaceOnUse">
   <stop stop-color="#edd400" offset="0"/>
   <stop stop-color="#edd400" stop-opacity="0" offset="1"/>
  </linearGradient>
 </defs>
 <g transform="translate(0 -400)">
  <path transform="matrix(.55206 0 0 .55203 114.12 492.02)" d="m791.43 404.09c0 157.8-127.92 285.71-285.71 285.71s-285.71-127.92-285.71-285.71 127.92-285.71 285.71-285.71 285.71 127.92 285.71 285.71z" fill="#729fcf"/>
  <path d="m725.41 709.67c-4.8443-24.476-28.626-40.398-53.109-35.555-0.70054 0.13858-1.3836 0.30636-2.07 0.47551 0.19859-3.6829-0.0507-7.4366-0.80007-11.221-4.8442-24.476-28.626-40.398-53.109-35.555s-40.408 28.619-35.563 53.096c2.642 13.349 10.929 24.126 21.876 30.404-10.83 6.802-18.296 17.963-20.482 30.559-3.4442 0.37853-6.9646 0.46949-10.542 0.23574-15.124-0.98823-28.57-7.5012-38.504-17.436 9.7724 16.381 27.157 27.835 47.633 29.173 0.31655 0.0207 0.63442 0.0276 0.95015 0.0434 0.14372 1.483 0.35651 2.9698 0.65189 4.4623 3.0683 15.503 13.738 27.565 27.365 33.1-8.7273 10.158-12.878 24.073-10.077 38.228 4.8442 24.476 28.623 40.382 53.105 35.539 19.244-3.8069 33.192-19.298 35.929-37.644 21.404-7.0052 34.691-29.044 30.208-51.69-1.6314-8.2431-5.4052-15.513-10.634-21.348 13.412-10.101 20.649-27.294 17.171-44.866z" fill="#c00"/>
  <path d="m481.53 996.27c9.1997-5.5319 16.179-13.029 20.311-21.017 8.1019-0.48614 16.753-3.1131 24.869-7.9936 17.385-10.454 26.815-27.939 24.154-42.447 1.6508-0.79436 3.2961-1.6798 4.9126-2.6518 20.92-12.579 30.317-35.349 20.994-50.851s-33.838-17.87-54.758-5.2905c-4.8502 2.9165-9.0831 6.3844-12.605 10.178-11.786-5.8783-28.817-4.611-43.965 4.4978-10.631 6.3924-18.28 15.418-22.015 24.782-2.4525-4.3879-4.173-9.2814-4.9523-14.549-2.6442-17.873 6.2195-34.791 21.013-43.248-19.601 6.1982-32.36 25.875-29.255 46.864 1.0457 7.0684 3.7736 13.476 7.7134 18.872-9.7197-0.75249-20.75 1.8198-30.933 7.9433-20.92 12.579-30.321 35.341-20.998 50.844 6.8901 11.457 22.078 15.737 37.98 12.115 0.59365 2.3243 1.5133 4.5599 2.7768 6.6607 9.3231 15.502 33.838 17.87 54.758 5.2905z" fill="#babdb6"/>
  <g transform="matrix(.91032 0 0 .91028 -103.89 89.789)">
   <path d="m764.67 419.76c-12.383-7.236-25.646-10.609-37.657-10.331-5.7643-9.1843-14.39-17.639-25.315-24.023-23.4-13.674-49.941-13.516-65.241-1.096-1.9895-1.4256-4.0823-2.7863-6.2581-4.0577-28.157-16.454-60.872-12.87-73.066 7.9968s0.74922 51.118 28.907 67.572c6.5283 3.8149 13.307 6.5527 20.013 8.2482 0.66611 17.583 13.071 36.732 33.461 48.647 14.309 8.3615 29.792 11.54 43.163 9.9147-3.571 5.6878-8.2038 10.842-13.879 15.133-19.255 14.559-44.768 15.017-64.166 3.0989 19.833 19 51.077 21.338 73.689 4.2422 7.6149-5.7576 13.377-13.063 17.176-21.141 5.3496 11.875 15.437 23.153 29.144 31.163 28.157 16.454 60.867 12.88 73.06-7.9869 9.0115-15.421 4.2912-35.967-10.15-52.283 2.3437-2.186 4.3746-4.6972 6.027-7.5251 12.194-20.867-0.74922-51.118-28.907-67.572z" fill="#ad7fa8"/>
  </g>
  <path d="m535.59 715.26c-7.6082 18.334-114.9-162.99-287.4 0 0-79.359 64.336-143.69 143.7-143.69s143.7 64.333 143.7 143.69z" fill="url(#b)"/>
  <path d="m362.94924,567.65558c-.55328,0-1.42855.10086-1.80394.60163-.36224.48306-.71007,1.11093-1.10225,1.503-.2349.23498-.48092.90208-1.10235.90208-.35852,0-1.54589-.19341-1.80374,0-.47773.35861-1.15166.6989-1.30266,1.3029-.19394.77579-.85088.65042-1.40282,1.20254-.31159.31167-1.04027.88654-1.50318,1.00234-.60516.1512-1.13621.30035-1.80384.30055-.50799,0-1.21351-.12237-1.70359,0-.80013.2001-1.21897.93121-1.90391,1.1024-.62267.15573-.90482.40472-1.20251.80182-.38455.51271-1.27876.80163-1.90401.80163-.96018,0-1.00186.17519-1.70359.70148-.4984.37394-1.36966.50106-2.00426.50106-.852,0-2.05912.0278-2.80583.40081-.5084.25445-1.18243.35079-1.40281.90219-.35204.87995-.64705.97475-1.50318,1.40315-.4981.2492-1.59591.5935-2.00426,1.00193-.31138.31157-.48411,1.42075-.90172,1.50351 .0298.0174.65652.56478.80156.60111 .61628.1543 1.41795.0999 2.10442.0999 .82978,0 1.55382.0999 2.4049.0999 .73187,0 1.16688-.50118 1.80385-.50118 .85303,0 1.70216-.00031 2.50526.20051 .66948.16726 1.3004.40091 2.00407.40091 .74525,0 1.16522-.0411 1.80384-.2005 .81042-.20267 1.29844-.16129 1.70361-.70147 .35646-.47544.65682-.76817 1.10223-1.10249 .35605-.267 1.70368-1.70371 2.00426-1.70382 .7468,0 1.29268-.22264 2.00407-.40071 .48894-.12228.50809-1.30156 1.00218-1.20264 .29028.0586.88588.78084 1.20251.70147 .27555-.069.61657-.14379.90192-.0998s.51643.26144.60125.60122c.16697.66782.35955.6464.7014,1.10238 .16759.22347.99972,1.21233.90183,1.60356-.11889.47636-.23233,1.27501-.0999,1.80376s.15791,1.11783.40073,1.60367c.16233.32474.62091,1.08045.7015,1.40295 .15699.62838.50614.6116.80177,1.20263 .35184.70416.17675,1.01088-.0998,1.70361-.23706.59268-.58251,1.27861-.40104,2.00447 .0371.14977.0629.35111.0998.50118 .11189.44847.17613.69118.30068.80151s.29882.10089.80146.10089c.59137,0 1.40652,0 1.7036.30054 .40176.40195.80176.62768.80176,1.20265 0,.41378-.22862,1.5174-.60146,1.70371-.26936.13484-1.10212.85845-1.10212,1.3028 0,.5582.0998,1.18824.0998,1.7037 0,.11261-.0279.29202 0,.40103 .16634.66545.30788,1.5174.60134,2.10452 .23101.46185.74898.87028 1.00209,1.5033 .2237.55933.24571,1.39348.5011,1.90422 .28205.56438.5642,1.02859.80156,1.50321 .28122.5623.45034,1.65296.90193,2.10472 .53218.53215.74494.89314 1.2027,1.5031 .3926.52381.89131,1.19225 1.30245,1.60346 .36521.3655.73763.83795 1.2028,1.3029 .9569.95725 1.53479,1.51915 2.70549,2.10462 .59949.29994 1.29585.59772 1.90389.90198 .6873.3437 1.26829.80091 1.80386,1.20265 .60896.4568 1.24212,1.11731 2.10442.90187 .74732-.18692 1.89742-.0463 2.60542-.40101 .23294-.11631.48935-.19207.7014-.40061s.3925-.51784.20042-.90218c-.15616-.3123-.50099-.81954-.50099-1.3027 0-.82118-.20042-1.56012-.20042-2.40518 0-.59864-.036-1.05948.0999-1.60367 .10747-.43015.13794-1.05123 0-1.60335-.16963-.67965-.032-1.33038-.20031-2.00447-.13988-.55984-.0999-1.28098-.0999-1.90402 0-.58402-.0329-1.06944.0999-1.60345 .15698-.62788.0998-1.28252.0998-1.90422 0-.53298-.0896-1.12452.0999-1.50331 .19343-.38702.44675-1.31812 1.00209-1.50341 .46877-.15614 2.10442-.51033 2.10442-1.10217 0-.65999-.0629-1.15283-.20052-1.70371-.15831-.63333-.57366-1.25751-.20032-2.00448 .42925-.85875 1.26952-1.09158 1.80386-1.80387 .30407-.40575.8308-.83085 1.30244-1.30289 .35462-.35449 1.13323-.66266 1.30287-1.00214 .21988-.43972.5011-1.09425.5011-1.60365 0-.35872.15593-1.62559-.20054-1.80386-.51858-.25929-1.10211-.1682-1.10211-.80174 0-.42108.45434-1.39584.30057-1.70371-.24304-.48644-.51406-.90527-1.30276-1.10239-.62153-.15531-1.47611-.27523-2.10432-.40081-.38057-.0762-1.24636-.18794-1.40293-.50106-.17848-.35717-.35266-1.32904-.70151-1.50351-.56852-.28429-1.21062-.30046-1.9041-.30046-.1752,0-2.33747-.51815-1.60313-.70137s.7083-.31465 1.00198-.90218c.16665-.3333.5014-.90147.20042-1.3028-.41927-.55933-.99005-.78969-1.40302-1.20275-.54805-.5482-1.81754-.80163-2.60532-.80163-.11219,0-.19177.0268-.30067,0-.44408-.11106-.85788-.55726-1.2025-.90197-.51077-.51116-1.43618-.73494-2.10442-.90189-.50572-.12639-.81535-.55479-1.40282-.70168-.57963-.14471-1.20085-.14956-1.80385-.30056-.78736-.1969-1.62752-.34574-2.4051-.50126-.28873-.0575-2.32749-.20865-2.20459-.70137 .0752-.3016.46239-1.00214.90184-1.00214 .60299,0 1.31529.11786 1.90409,0 .76843-.15378 1.55682-.30086 2.4051-.30066 .77378,0 1.5528.0504 2.30465.20041 .93981.18805 1.9808.069 2.90619.30066 .72694.18167 1.84677.30056 2.60532.30056 1.06858,0 2.31328-.0999 3.40729-.0999 1.67127,0 3.16404-.40071 4.80989-.40071 .95246,0 1.27795-.58052 2.00427-.70147 .36799-.0618.68123-.16757.80154-.30087s.0155-.27162-.50097-.4008c-.62852-.15708-1.3533.0628-2.00416-.0999-.48917-.12229-1.26612-.30046-1.80376-.30046-.77325,0-1.43533-.0998-2.20458-.0998-.5505,0-1.04727.1614-1.60322.30056-.7325.18321-1.43628,0-2.20469,0h-2.4051c-1.07672,0-2.20756-.20031-3.20666-.20031-.65118,0-1.28816-.0998-1.80386-.0998-1.0237,0-2.21034,0-3.00625-.40082-.74207-.37126-1.28031-.59586-2.10442-.80193-.38096-.0957-1.26436-1.10248-1.60334-1.10248zm63.93369,1.20264c-1.25612.26175-2.55291.41276-3.70775.70179-1.46096.36509-2.36167,1.03796-3.70777.70137-.9365-.23407-1.82586-.30499-2.80581-.50117 .31807.31825.1651.73307-.0999,1.10238s-.69975.65032-.90193.80183c-.0298.0215-2.31049.2771-2.40509.30077-.54299.13566-.33135.50116 0,.90188s.83955.76117 1.00228.80172c1.23905.31003 2.80284,1.05072 3.90807,1.60346 .47506.23767.6974.42521.80158.70158s.0916.66555.20051,1.10249c.21544.86235.34154,1.12277 1.10234,1.5033 .66527.33268 2.15835.40092 2.906.40092 1.21144,0 3.00274.60019 3.90827.90187 .76317.25446 1.89659,1.09519 2.40489,1.60346 .52797.52824 1.03152.84074 1.60344,1.60367 .66238.88314 1.3326,1.36764 2.20458,1.80375 .75369.37694 1.93201.36479 2.405.60122 .86064.43056 1.90648,1.10507 2.50537,1.70381 .70622.70652 1.26754,1.36775 1.80364,1.90422 .69625.69633.86342,1.47439 1.70359,2.10453 .86003.64527 1.55041,1.14953 2.20468,1.80407 .75885.7588 1.43688,1.13614 2.10442,1.80365 .52508.52536 1.04501,1.2885 1.90401,1.50341 1.16853.29221 1.91183-.45279 2.9061-.70147 .48709-.12208 2.25007,1.71266 2.50505,1.90422 .59107.44302 1.16183,1.32162 1.4031,1.80386 .27435.54904 1.20395,1.30443 1.60334,1.7037 .77214.77229.95557.92885 1.90393,1.40306 .38867.19433.83202.22644 1.20239.0998s.62595-.39988.70161-.70178c.20937-.83744.53074-1.28417.30057-2.20457-.13547-.54235-.0515-1.15983.20032-1.60356s.66208-.67111 1.40312-.30066c.52929.26504.86609,1.1311 1.10233,1.60366 .33301.66658.80157,1.54808.80157,2.50513v2.30524c0,.36499 4.21482,2.71182 4.30901,2.8062 .54031.53997 1.26847.87913 1.9039,1.30269 .69946.46638 1.15144.92659 2.10432,1.40315 .54041.2703.83173.77157 1.00229,1.3028s.2106,1.06173.0999,1.5032c-.12372.49541.29501,1.6264.0998,2.40538-.15089.60422-.26247,1.08314-.20041,1.40306s.32034.46072 1.00198.80162c.98871.49437 1.36237,1.27861 2.40511,1.90422 .54535.32732.97315,4.15109 1.30275,4.81058 .37974.75941.806,1.78615.60125,2.60558-.22234.88922-.60125,1.54901-.60125,2.50545 0,.6817-.53435,1.63648-.70151,2.30502-.15923.63807-.46248,1.31165-.60124,1.80397s-.11282.81675.60124,1.10238c.92829.37149 2.45576.80173 3.40709.80173h3.00625c.47803,0 .96048.95943 1.40302,2.00438s.81442,2.16855.90202,2.60569c.18519.92761.42801,1.32997 1.00199,1.90412 .75276.75304 1.85325,1.40047 2.10442,2.40528 .28657,1.14706.68246,1.44063.20041,2.40518-.2346.46947-1.88137.84054-2.4051,1.1024-.75174.37601-2.01529.51321-3.1064.80182-.54556.14432-1.04091.35501-1.40302.60132s-.60125.57169-.60125,1.00214c0,.98103.39486,1.39122.80176,2.20478 .44252.88562.85169,1.56969 1.40293,2.30503 .0896.11981.19453.295.30067.40092 .61113.6113.5468,1.56434 1.10233,2.30492 .76575,1.0219 1.14384,1.88735 1.7034,3.00672 .53876,1.07769 1.75464,1.90618 2.405,3.20681 .36325.72679 1.00228,2.1109 1.00228,3.10685 0,.78578.41463,1.55828.60115,2.30515 .14235.5694.72045,1.12256 1.30276,1.5033s1.17265.66884 1.70359.80162c.93775.23448 2.02548.0998 3.00636.0998 1.03851,0 1.67486-.30045 2.60541-.30045 .53641,0 1.29741-1.39604 1.60333-1.80408 .6696-.89291 1.05931-1.43103 1.30266-2.40506 .13124-.52526.26804-1.04928.30078-1.60377s-.0731-1.07501-.5011-1.5031c-.3647-.36489-.42677-.72443-.40093-1.10259s.13937-.75346.40093-1.10229c.1404-.18734.20032-2.58881.20032-2.70584 0-.0968-1.2726-1.69692-1.50308-2.00437-.56285-.75057-.70541-1.71103-1.10233-2.50545-.42812-.85679-.50111-1.60871-.50111-2.70585v-2.50554c0-1.14654-.52435-1.52646-1.10234-2.10452-.60836-.60852-.58364-1.13223-.80155-2.00447-.14968-.59834-.0803-.94912.0998-1.20254s.5295-.42232.90182-.70168c.6168-.46246.80177-1.43825.80177-2.20457-.0002-.55325-.17354-1.11299-.20041-1.5034s.0598-.69149.50109-.80163c.40597-.10191.86569.23232 1.2024.60111s.56378.81862.7014,1.00234c.52209.69623.62915,1.09796 1.30296,1.60336 .90513.67924 2.2261,1.01294 3.00625,1.40326 .82482.41254 1.57913.83353 2.20458,1.30268 .7749.58135 1.42197,1.12154 1.90381,1.60336 .46032.46041.59446,1.36054 1.00229,1.90432 .42739.56993.90707.70652 1.40292,1.20274 .53506.53515.83924,1.57856 1.10234,2.10453 .2914.58299.49429.80935.7013.80163s.46465-.28244.90203-.50098c.27648-.13854-.43079-2.22391-.5011-2.50554-.19578-.78319-1.30039-1.89907-1.60333-2.50542-.32353-.64713-.21916-.92381 0-.90209s.57593.27534.80157.50106c.663.66308 1.29554.88746 1.80384,1.90422 .22008.44024 1.05706,1.0571 1.50319,1.50331 .65302.6534.56243,1.24835.80155,2.20498 .0844.33823.29574.41913.50111.40061s.4599-.18682.7016-.40061c.48318-.42799.98005-1.05895 1.10213-1.3029 .29964-.59947.38942-1.26831.60125-1.90411 .27599-.82839.14113-1.54335-.0999-2.20488s-.64552-1.26266-.90202-1.90423c-.22935-.57342-.58395-1.07376-.90182-1.60345-.9636-1.60613-1.76155-3.1221-2.60532-4.81047l-.0998-.20051c-19.84638-32.97316-51.58179-57.85142-89.38702-68.64969zm-97.8046,13.22887c-.50438,0-1.30914.95552-1.60322,1.10259-.64531.32259-1.31903,1.06431-1.90423,1.5031-.60855.4566-1.12323.8675-1.70337,1.3029-.66199.49665-1.10122.60143-2.10443.60143-.95165.0002-.97305.43621-1.70359.80173-.85447.42726-1.64462,1.78594-2.00427,2.50533-.33877.678-.82514,1.52668-1.2024,1.90412-.45868.45886-1.2762.73821-1.80375,1.00233-.62915.31436-.40082,1.55642-.40082,2.20479 0,.43323-1.68899.50117-1.80377.50117-.22986,0-1.56164-1.96269-1.70359-2.10474-.70881-.70898-.3399-.83652-1.40301-1.10249-.57552-.14379-1.04337-.0947-1.30267-.2003s-.40083-.38917-.40083-1.10239c0-.77311.92551-1.12606 1.30276-1.5034 .45859-.45835 1.36124-.78094 1.80375-1.00204 .64469-.32258.91644-.91649 1.40293-1.40314 .60412-.60431.70141-1.2991.70141-2.20479 0-.28255-1.42568-.86327-1.7036-1.00212-.63614-.31827-1.04028-1.0213-1.80375-1.40316-.0134.0103-.0865-.0103-.0998,0-14.36772,8.07286-27.24049,18.38282-38.27997,30.46638-.12322.61912-.18067,1.36362-.40094,1.80386-.4207.84197-1.01094,1.01109-1.60333,1.60366-.44346.44352-.67897,1.27253-1.00199,1.70381-.46537.62016-1.17079.87008-1.70359,1.40295-.51643.51641-.50099,1.69105-.50099,2.40539 0,.67595.29872.92473.60115.90178s.56523-.32867.80176-.80163c.29266-.58557 1.75878-1.49456 2.30485-1.90422 .74928-.5622 1.81621-.92678 2.20459-1.70371 .35101-.7022.68586-1.13995.90182-2.00437 .28709-1.14861.9222-1.64391 1.50308-2.8063 .20762.64877.54699,1.44895 1.20258,2.10472 .29986.30005.44007.73451.40084,1.1025s-.25765.71578-.40084,1.00192c-.22552.45146-1.1329,1.13317-1.60342,1.60367-.56975.57003-.8833.56416-1.2024,1.20275-.34453.68921-.91706.86163-1.10225,1.60334-.17313.69293-.52825,1.21119-.70141,1.90402-.24734.98927-.0834,1.58647-.80185,2.30524-.48721.48727-.76297,1.44854-.90193,2.00436-.24633.98608-.68886,1.24321-1.30266,1.7035-.66888.50211-.91057,1.5378-1.10235,2.30535-.25106,1.0043-1.44604,2.09001-1.90401,3.00651-.39341.78701-.70242.90373-1.10223,1.70371-.27762.55582-.31787,1.47201-.5011,2.20467-.20331.81336-.66105,1.58287-1.20249,2.30494-.0896.12011-.29481.19484-.40074.30075-.53505.53524-.90193,1.77021-.90193,2.50544 0,.68459-.92301,1.88847-1.10224,2.6057-.24394.97568-.43541,1.77257-.80186,2.50533-.4521.90467-.88051,1.26018-1.30267,2.10463l-1.10224,2.20487c-.29479.59011-.30055,1.43702-.30055,2.20499 0,.67503-.23532,1.74273-.40084,2.40508-.18365.73431 0,1.74725 0,2.50555 0,.98236-.35132,1.55384-.90204,2.10451-.64529.64559-1.05817,1.02612-1.30265,2.00448-.15471.61923-.56893,1.43877-.90182,2.10432-.44046.88119-.49389,1.39326-1.10245,2.20498-.45878.61182-.79158,1.56311-1.00208,2.40518-.22357.89489-.29615,1.5944-.7013,2.40519-.40805.81634-.49605,1.38256-.70151,2.20477-.19919.79741-.53434,1.36949-.80177,1.90433-.38643.773-.40062,1.60222-.60125,2.40528-.21874.87584-.30057,1.92718-.30057,2.8058 0,.77033-.40083,1.71132-.40083,2.60579 0,.92411-.0968,1.6893-.30058,2.50553-.19672.78712-.0999,1.62828-.0999,2.50545 0,1.24711-.30057,2.43987-.30057,3.70808 0,.97506.38509,1.13965.60125,2.00437 .19021.7618.11416,1.65976.30046,2.40508 .0917.36417.20063.66081.20063,1.1028 .30273,1.21181 1.10235,1.57021 1.10235,2.8059 0,.97146.1019,1.40984.30035,2.20487 .19394.77549 0,1.80222 0,2.6056s-.31024,1.84266-.50087,2.60579c-.0258.10294 0,.19454 0,.30056 0,.95859-.30058,1.97329-.30058,3.0065 0,.29429.59312,1.68755.80145,2.10463 .38685.77363.59715,1.88672.80177,2.70616 .30264,1.21107.64388,2.26046 1.10224,3.40731 .36501.91248.40856,1.6224.80167,2.60538 .25734.64301-.0391,1.84649.0998,2.40539 .19519.78074.20054,1.69528.20054,2.50545 0,.9132.20052,1.63659.20052,2.50543s.10786,1.63454.30056,2.40518c.23038.92236.0999,1.60367.40084,2.20478 .5085,1.01738.98572,1.23743 1.2025,2.10473s.51632,1.66428.70151,2.40518c.21668.8673 1.09894,1.59121 1.30265,2.4053 .27979,1.11926 1.29319,2.11573 1.80375,3.30726 .31612.73771.32065,1.64308.60136,2.20478 .26619.53256 1.49699.99739 1.90389,1.3028 .38035.28521.3784.60615.5011.90197s.32672.55778.90182.70158c.68843.172 1.1425.8568 1.60323,1.20244 .6068.45537-.31704-1.46893-.50089-2.20468-.20803-.83219-1.04357-1.70587-1.40291-2.30492-.33629-.56067-.0463-1.89733-.30078-2.40539-.41349-.82736-.78437-1.5346-1.00208-2.40508-.2316-.92669-.67134-1.784-.90183-2.70606-.23499-.94089-.59147-1.58379-1.00209-2.40518-.49088-.98217-1.10223-1.34243-1.10223-2.50555 0-.74676-.57304-2.0479-.90191-2.70573-.34608-.69232-.20043-2.0862-.20043-2.90645 0-.80533-.30068-1.46338-.30068-2.30484 0-.9939-.27164-1.98851-.50109-2.90645-.21091-.84434-.50088-1.59944-.50088-2.50555 0-.66976.1754-.89641.30057-.80172s.20031.53308.20031,1.10259c0,.62346.84562,1.27717 1.0022,1.90402 .22089.88366.3754,1.8018.60124,2.70595 .17767.71094-.19372,1.72995 0,2.50554 .22171.88747.70161,1.40181.70161,2.40518 0,.83786.30047,1.44669.30047,2.20488 0,.54852.66517,1.65842.80166,2.20467 .21494.8603.38879,1.75519.60125,2.6057 .18004.7198.59024,1.65914.80167,2.50554 .17181.68758.60116,1.53624 1.10224,2.20467 .43604.58136.51933,1.6397.80187,2.20479 .4485.89745.66404,1.42837 1.10214,2.30502 .35565.71115.617,1.26523.80177,2.00437 .20906.83641.9359,1.97195 1.30266,2.70596 .34926.69838.74144,1.46285.90202,2.10452 .23675.94819.46734,2.0372.90182,2.90635l1.00209,2.00447c.43748.87512 1.01011,1.51103 1.60323,2.10452 .72477.72464 1.73047,1.0745 2.60552,1.50311s1.57935.90599 1.80374,1.80406c.19405.77599.82626,1.65265 1.10234,2.20478 .40815.81634 1.17503,1.57608 1.80377,2.20488 1.66354,1.66388 3.06737,3.43768 5.21092,4.50991 .72591.36284 1.20857.57755 2.10453.80163 .90357.22603 1.63843.31825 2.40489.70146 .77285.38672 1.49144.50117 2.40511.50117 .36337,0 1.28113.84641 1.90401,1.00214 .55512.13907 1.45406-.18784 2.20446,0 1.03185.25794 1.35836-.66266 2.40511-.4007 .96926.24218 2.45452,2.46735 3.30683,3.10655 .75482.56632 1.54095,1.16321 2.40509,1.90422 .79035.6777 1.33972,1.06163 2.30484,1.3029 .76883.19238 1.19798.29808 1.80375.60121 .6484.32434 1.73829.0999 2.50536.0999 .73507,0 1.47168,1.07099 1.90391,1.5034 1.0271,1.02725 2.23578,1.61158 2.90599,2.50554 .58879.78516.92592,1.82785 1.60333,2.50533 .60969.60966 1.46479,1.36446 2.20469,2.10464 .61215.61222 1.31069,1.03424 1.50307,1.80366 .20578.82333 1.19406,1.19852 1.80385,1.5034 .67208.33607 1.57821.54491 2.20469.70147 .55884.13988 1.46272,1.373 1.90391,1.70381 .33639.2525 2.06375-.2004 2.60541-.2004 .70583,0 1.57245,1.02776 2.00437,1.60356 .49171.65619.79807,1.20254 1.70338,1.20254 .93271,0 1.71338-.41059 2.30473-1.00244 .4693-.46885.60126-1.74211.60126-2.40499 0-.61613 1.59139.78969 1.90401,1.1025 .48904.48913 1.12994,1.23023 1.50317,1.60335 .70492.70507 1.6648,1.626 2.00427,2.30503s.14298,1.58925.50099,2.30504c.3999.80028.72612,1.26862 1.20262,1.90411 .50787.67739.50098,1.22344.50098,2.30503 0,.86998.20041,1.55683.20041,2.40518 0,.74182-.63357,1.03138-.80167,1.70382-.20113.80452-.50098,1.36641-.50098,2.40529 0,.72031-1.30266,1.44453-1.30266,2.50543 0,.80184.80373,2.01323 1.00188,2.80599 .22739.90981.48112,2.0646.90204,2.90647 .48502.97033 1.23738.84073 1.50295,1.90411 .22822.9129.28659,1.8473.50111,2.70585 .20206.80863.70912,1.13224.90191,1.90422 .1679.67183.68411,1.2855 1.10246,1.70371 .51652.51662 1.39715,1.0257 2.10421,1.20255 1.28135.32021 1.75537.83713 2.40511,1.70381 .57067.76106.85879,1.57102 1.70348,2.20487s1.21135.70992 1.80364,1.30269c.13528.13515.2422.19465.40105.30067 .79929.53308 1.01999,1.21139 2.00416,1.70381 .79858.39936 1.4826,1.06955 2.20459,1.5032 .91541.54945 1.39323.94707 2.30483,1.40305 .78468.39258 1.38759,1.14469 2.10443,1.5033 .78005.39021 1.35731.71228 2.30484.90189 .76719.15367 1.75095.43776 2.40511.60142 .99332.24847 1.94702.42242 2.70556.80162 .71283.35635 1.49257,1.19205 1.90391,1.60377 .59229.59216 1.58408,1.04237 2.30505,1.40274 .54402.27256 1.29503.7479 1.80365,1.00244 1.01309.50662 1.41166,1.23404 2.30484,1.90401 .68803.5163 1.15813,1.15828 1.70347,1.70372 .66478.66513 1.06654,1.56773 1.60334,2.10441 .64067.64116.90872,1.33018 1.10244,2.10463 .24284.97218.91306,1.52574 1.30266,2.30534 .38407.76818 1.48969,1.21768 2.00417,1.90412 .49894.66525 1.47344.97228 2.00417,1.5031 .69667.69695 1.3079.90866 1.9041,1.70382 .57944.77269 1.19994.99945 1.60324,1.40304 .56966.56961 1.39407.84733 1.9039,1.10229 .15358.0762.24767.14235.40104.20061 4.24188-.21687 8.38136-.5477 12.52609-1.10261 .0329-.0803.17673-.1056.20063-.20029 .2639-1.05669 1.5534-1.87941 2.10421-2.70595 .56986-.85505 1.47373-.95612 2.20459-1.10239 .86938-.17395 1.25448-.75346 1.90389-1.40295 .66272-.66297 1.29638-1.29414 1.90411-2.10452 .59941-.79946.81465-1.35384 1.30278-2.00436 .57736-.77023.69891-1.49827 1.10222-2.30525 .46157-.92349.94939-1.62723 1.7037-2.00437 .87732-.4389 1.12972-1.10918 1.90391-1.30268 1.03501-.25908 1.48383-.67173 2.4049-.90209 .74648-.18672 1.9744-1.97452 2.40519-2.40518 .63255-.63283 1.06314-1.0501 1.7034-1.90433 .23633-.31507.42759-.72804.7015-1.00214 .21195-.26494.3895-.43652.60135-.70156 .35554-.44447.37171-1.88735.50089-2.40519 .18405-.73648.55895-1.71895.90203-2.40539 .35255-.70508.23665-1.67521.60126-2.40508 .40576-.81151.66095-1.52255 1.00217-2.20489 .38118-.76261.12477-1.65235.5009-2.40518 .38703-.77393.61812-1.53696.90192-2.10452 .40629-.81304.25898-1.08129 1.30256-1.60346 .55812-.27894 1.13085-1.23105 1.60342-1.70361 .44098-.44126.6869-1.77463.90204-2.20487 .37582-.75181 1.31851-1.4189 1.80375-1.90433 .38363-.38382.74587-1.247 1.10224-1.60335 .42636-.42644.49275-1.67097.60114-2.10474 .17314-.69137.12496-1.50144.30088-2.20477 .19362-.77487-.56306-1.36476-.90202-1.70381-.64314-.64311-1.07353-1.48148-1.90391-2.10463-.71406-.53565-1.21178-.81089-1.60334-1.20243-.51518-.51517-1.42936-.76468-2.10462-1.10229-.57623-.28841-1.10162-.40092-2.00406-.40092h-2.60541c-.91399,0-1.39552.20031-2.20469.20031-.86354.0001-1.44163.20061-2.30465.20061h-2.40499c-.71921,0-1.26169-.40092-2.10453-.40092-.86353,0-.94094-.58628-1.40292-1.20274-.41358-.55181-1.51048-.70147-2.20458-.70147-.94197,0-1.81373-.0998-2.90609-.0998-1.26179,0-1.47105.33463-2.4051.80182-.66095.33052-1.29257.79154-1.7037,1.20265-.47866.47883-1.5357.77476-2.10421,1.00213-.74732.29902-1.70112.17601-2.4051,0-.47938-.11991-.62668-.43653-.70141-.80183-.0751-.36499 0-.82488 0-1.30279 0-.92792.54587-1.34747 1.10234-1.90402 .36193-.3622.30057-1.64133.30057-2.20487 0-1.11979.12146-1.26029-.30057-2.10453-.36243-.72484-1.09863-.99853-1.50327-1.40304-.47959-.47977-.84079-1.34212-1.30266-1.80397-.44169-.44179-.901-1.30094-1.2025-1.90412s-1.14939-.92545-1.70359-1.20285c-.68928-.34441-1.73839-.45939-2.30474-.60111-.69296-.17324-1.68671,0-2.4052,0h-2.30474c-.84883,0-1.50606.20041-2.30484.20041-.59847,0-1.17554.4007-2.00428.4007-.65302,0-1.25745-.90826-1.70339-1.5032-.58456-.77949-1.30162-.90044-1.80374-1.40295-.5361-.53637-1.18356-.68253-1.60344-1.10239-.49727-.49757-1.86015-.74079-2.50516-.90197-.94783-.23696-1.74136-.46989-2.4052-.80184-.91428-.45722-.94896-.89612-1.40281-1.80397-.38621-.77249-.70161-1.19904-.70161-2.00416 0-.63807-.38952-1.68127-.60115-2.10463-.15295-.30621-.40412-.64053-.50098-.80182-.31026-.62078-.0422-.96385.0998-1.20255s.19394-.35254-.40072-.50106c-.0721-.0176-1.4616,1.29672-1.60334,1.40315-.63346.47503-1.10934.37735-2.00437.60112-1.32006.3302-1.45973.27236-2.60532-.30066-.47649-.23819-.55544-.52145-.7015-.70148s-.28328-.27997-1.00199-.0998c-.73188.18301-1.27589.6881-1.9041,1.00223-.70893.3546-1.0761.43139-1.7036.90188-.64798.48635-1.80571.8534-2.405,1.3029-.55296.41481-2.02002-.35871-2.30493-.50097-.75144-.37621-.77183-1.68549-.90184-2.20477-.17541-.70188-.3755-.78742-.60124-.60142s-.49986.69941-.70142,1.10238c-.25908.51836-.63551.66442-1.00196.70148s-.6695-.034-1.0023-.2005c-.0936-.0474.0999-2.10566.0999-2.40509 0-.39073-1.26251-1.46307-1.40302-1.60356-.37943-.37961-.61936-.28779-.80167,0s-.33042.76138-.50098,1.10239c-.39033.78093-.40721,1.73552-.60136,2.70594-.16386.82057-.2002,1.67798-.2002,2.50545 0,.57311-.49678.99781-.90193,1.40304-.37633.37663-.43758-.14564-.40084-.90198s.20454-1.68272.0999-2.20478c-.16882-.84413-.4944-1.57679-.70151-2.40518-.172-.68839-.13802-1.37855-.40083-1.90422-.25075-.50158-.69183-.0844-1.10224.50117-.4104.58474-.83687,1.38319-1.00199,1.60346-.64035.85381-2.01763,1.65461-2.50525,2.30503-.23057.30735-1.53755.81892-1.90411,1.00213-.84222.42119-1.90206,1.67725-2.60541,2.20468-.66888.50209-.60125,1.92655-.60125,2.70615 0,.98289.32929.84434-.20042,1.90402-.24984.49962-.65302.47573-1.00219.30066s-.5682-.46803-.7014-.60122c-.5573-.55727-.99056-.79895-1.80375-1.00224-.88833-.22203-1.57821.21903-2.30485.4006-.98232.2459-1.87724.66999-2.80572.9022-.75236.18815-1.84153-.034-2.50546-.20041-.56214-.1405-1.09679-.89642-1.60333-1.40305-.63873-.63899-.85922-.84487-1.50308-1.70392-.48771-.65042-.64571-1.11042-1.30275-1.60325-.80693-.60543-.98624-.26886-1.40293-1.1026-.3581-.7164-.59991-1.20109-1.00208-1.60345-.40557-.40554-.30056-1.40747-.30056-2.20468 0-.78092-.20053-1.76495-.20053-2.60569 0-.81088-.16017-1.64256-.30057-2.20488-.17602-.70425-.0999-1.70392-.0999-2.40528 0-.59-1.0022-1.17753-1.50328-1.30259-.83059-.20782-1.41743-.40092-2.70557-.40092h-3.00625-2.40509c-.60321,0-.75547-.12732-1.10225-.30086-.13733,0-.90203-2.11441-.90203-2.40508 0-.87019-.20031-1.55673-.20031-2.40539 0-.83148-.15277-1.61313-.30068-2.20457-.16326-.65362-.10951-1.44011-.30068-2.20499-.17323-.69293 0-1.68651 0-2.40518 0-.86916.20053-1.28375.20053-2.20477 0-.61678.0998-1.48005.0998-2.20479 0-.93255-.52569-1.61591-1.30275-2.00436-.67815-.33927-1.49566-.20051-2.30475-.20051-.82791,0-1.35288.21285-2.10443.40081-.85159.21306-1.2697,1.16969-1.60333,1.5035-.56768.56767-.61782,1.46852-.80167,2.20468-.17601.70394-.0998,1.70392-.0998,2.40539 0,.39279-.87991,1.51493-1.00229,2.00406-.22193.88849-1.44028,1.42189-2.00407,1.70382-.83595.4182-2.27582-.0853-2.90599-.40092-.5156-.25794-1.43534-1.74642-1.70359-2.10432-.43335-.57806-.90985-1.01016-1.30286-1.40335-.53486-.53484-1.01721-.8218-1.60312-1.60336-.45582-.6078-.78613-1.2715-1.0023-1.70381-.37983-.75993-.48544-1.27161-.90182-2.10463-.37747-.7552-.8734-1.54633-1.30276-2.40498-.4739-.94829-.49048-1.39264-1.10234-2.00447-.63346-.63374-.80156-1.51761-.80156-2.40539s-.30068-1.82372-.30068-2.70595c0-.80502-.30068-1.56341-.30068-2.40518 .00021-.80522 0-1.56353 0-2.40509 .00021-.74377.5011-1.35713.5011-2.20487 0-.92483-.20042-1.3344-.20042-2.20488 0-1.0463.0844-1.5631.5011-2.6056 .26835-.67131 1.04028-1.17855 1.30265-1.70381 .31529-.63055.64798-1.09754 1.10245-1.7037 .45898-.61245 1.16441-.96838 1.90389-1.20244s1.50587-.42675 2.20449-.60133c1.0867-.27184 2.00066-.15141 3.00645.0999 1.0904.27276 2.15527.40091 3.30682.40091 .55473,0 .82122.27226 1.10225.50098s.55667.43723 1.10234.30075c.55565-.13906.40094-1.93253.40094-2.40528 0-.56725-.22152-.86504-.20053-1.10229s.27371-.43756.80167-.70167c.92437-.46206 1.05983-.60123 2.20469-.60123 1.01144,0 1.95753.20041 2.90599.20041 .56182-.0001 1.37893.63941 1.9041.90198 .51109.25569.82958.25794 1.20241.30066s.71345.1828 1.10234.70147c.53278.71075 1.29503,1.19493 1.80374,1.70371 .55544.55573 1.61682.85845 2.10442,1.10239 .35751.17889.29944,1.99923.40095,2.40529 .19341.77414.6524,1.405 1.00198,2.10453 .48822.9766.71695,2.04266 1.10234,3.00671 .27597.68983.53465,1.36979.80176,1.90411 .42162.84372.66446,1.23424 1.4027,1.60345 .60796.30396 1.23597.33412 1.90413.50108 .79127.19793 1.43338-.50808 1.80385-1.00235 .28554-.38084.20814-.95344.0999-1.5031s-.31345-1.09014-.5011-1.40304c-.5928-.98824-.41524-1.94694-.80166-3.10686-.30439-.91341-.93682-1.78349-1.40301-2.40518s-.55124-1.70413-.90182-2.40519c-.3745-.74883-.61022-1.33811-.80167-2.10474-.1887-.75468-.2382-1.55394-.40084-2.20477-.25127-1.00522.3332-1.83628 1.00198-2.50534 .49605-.49602.56151-.8431.70161-1.40315 .80083-.80111 1.23007-1.75847 1.7036-2.70574 .40401-.80872.60135-1.46429.60135-2.40539 0-.49221.45435-1.00718 1.00197-1.50331s1.19087-.98627 1.50318-1.40295c.58209-.77619 1.38037-1.55867 1.80375-2.40528 .35688-.71423 1.06436-1.25102 1.30275-2.20477 .16316-.65362.10942-1.44001.30059-2.20488l.60114-2.40508c.20483-.81902.19527-1.52409 0-2.30514-.19013-.76106-.50727-1.51586-.80167-2.10462-.39744-.79515-.94752-1.24814-1.40281-1.70382-.35905-.35902-.30047-1.82908-.30047-2.40498 0-.51105 1.53251-.50127 2.00406-.50127 .73137,0 1.59849-.47462 2.10432-.60132 .46815-.11704 1.12088-1.2396 1.40281-1.80386 .35235-.70477.59199-1.36558.80188-2.20498 .22656-.90703-.20052-1.60738-.20052-2.40499 0-.685.75956-1.43208 1.30265-1.7037 .78128-.39083 1.24729-.70179 2.20479-.70179 .92746,0 1.70946.20051 2.60531.20051 1.07085,0 1.30998-.31506 1.70358-1.10228 .29688-.59402.20043-1.69733.20043-2.40529 0-.81192-.0515-1.60747-.20043-2.20498-.12155-.48656.0957-.98288.20043-1.40295-.13443-.53833.96626-2.16865 1.10224-2.30492 .52343-.52351 1.10059-1.05134 1.80385-1.40305 .60239-.30129 1.3009-.79968 1.90411-1.40306 .64962-.65 1.20662-1.40717 1.60333-1.80386 .58654-.58711.67084-1.17197 1.20241-1.70382 .25065-.25052.13649,1.83165 0,2.10453-.19517.39062-.0957.66545.0998,1.00245s.52107.68098.60136,1.00202c.13043.52124-.0865.87101-.0999,1.10239s.0968.40102.80156.40102c.98829,0 1.23936-.27379 1.60345-1.00243 .38858-.77724 1.08505-.86381 1.80374-1.40306 .54433-.40823.8519-1.05206 1.40292-1.60346 .64756-.64785 1.09442-.79061 1.70359-1.60346 .52446-.699 1.22391-.71217 2.00416-1.10228 1.09638-.54862.59446-1.30115 1.80375-1.60355 .7465-.18672 1.21692-.83035 1.50318-1.40295 .29933-.59875-.50099-1.46513-.50099-2.10473 0-1.02159-.27617-1.40388-.80167-2.10442-.28359-.37827-.55986-.44703-.80176-.40111s-.4065.20605-.60115.40111c-.47762.4777-.70161,1.7033-1.00218,2.30483-.41805.8361-.20763,1.38339-.90194,1.90432-.50746.38053-1.84595-1.03394-2.20468-1.30301-.62914-.47204-1.57132-.60131-2.40489-.60131-.51438,0-.77224.19731-1.00208.30056s-.45571.0905-.80168-.60113c-.27678-.55396-.18054-1.72408-.30057-2.20487-.10901-.4356-.37561-.61831-.5012-.80163s-.0433-.45794.40093-.90209c.58099-.58114.90185-.33113.90185-1.40325 0-.80749.69944-1.40181 1.30275-1.70351 .78304-.39165.36099-1.00213 1.50317-1.00213 .7954,0 1.62196-.25991 2.10443-.50106 .45539-.228.72425-.53874.7014-.80184s-.27021-.4008-.80166-.4008c-1.0026,0-1.58183.60121-2.60542.60121-.63255,0-1.64718.69036-2.20467.80173-.80313.16068-1.56948.0917-2.40491.30076-.86034.21502-1.52643.88273-2.40519,1.10229-.77472.19382-1.74303,1.4611-1.90393,2.10462-.25042,1.00265-1.06805,1.86985-1.80374,2.6057-.73445.73451-1.09174.75705-1.80385.40091-.0947-.0474 1.07754-2.0549 1.30286-2.50544 .51828-1.03661.6872-1.68919 1.60333-2.60579 .69544-.69551 1.423-1.12225 2.00416-1.70371 .68268-.68254 1.00776-1.37938 1.90401-1.60345 .91335-.22841 1.93912-.0999 2.90609-.0999 .91759-.0002 1.51758-.40101 2.30475-.40101 .7326,0 1.5569-1.01707 2.20459-1.50311 .74237-.55706 1.94981-.53039 2.80603-.70168 .97366-.19474 1.3778-.45084 1.70339-1.10239 .35872-.71732 1.30615-.6044 1.80395-1.10248 .35575-.35595.39878-.7338.50099-1.00214s.18693-.47256.70141-.60122c.78889-.19722 1.65676-.13865 2.30484-.30056 .69287-.17313 1.58645,0 2.30483,0 .5642,0 .93745-.0853 1.10234-.30065s.20054-.58527.20054-1.00214c0-.78299-.45211-1.4542-1.00219-2.00448-.63153-.63169-.97121-1.24103-1.40302-2.10462-.37232-.74491-.71242-1.62559-1.00197-2.20488-.34187-.68377-.60147-1.50341-.90204-2.10442-.40414-.80893-1.23647-1.2363-1.90391-1.40325-.68432-.17088-1.51492-.91362-1.90401-1.3028-.47341-.47348-.93888-.95458-1.40291-1.3028-.66558-.49921-.98099-.55892-1.30276-1.20265-.30387-.608-.7259-1.15117-1.10214-1.9041-.29233-.58455-.71633-.93133-1.00229-1.50321-.30387-.60822-.0874-1.57854-.30067-2.00447-.28761-.57559-.50253-1.50629-.80157-2.10443-.33721-.6746-.55101-.80131-.90183-1.5036-.44755-.89498.10089-1.40182-.50129-2.00417-.57088-.57126-.60403-1.0538-1.30266-1.40326-.42851-.2141-.59826-.4108-.80156-.50086s-.41998-.0411-.90183.20041c-.0865.0433-.7157,1.53162-.80176,1.70371-.36367.72741-.87353.87336-1.60334,1.60336-.6731.67337-1.06208,1.12214-1.40302,1.80405-.30138.60297-1.51059.19846-1.90401.10089-.36315-.0906-.43088-.45929-.40073-.90209s.0906-.93935 0-1.303c-.17323-.69293 0-1.68642 0-2.40508 .00011-.34441.37604-.35326.80167-.40092s.95907-.15717 1.20262-.40081c.30097-.30139.47988-.46988.50098-.70168s-.1156-.51661-.50098-.90177c-.44973-.44982-1.5774-.26907-2.10443-.40103-1.11687-.27925-1.55773-.16612-2.40522-.80172-.75008-.56252-1.18674-1.0395-1.40291-1.90401-.14142-.56654-1.33611-.45939-1.9039-.60144-.80053-.20029-1.62927-.20029-2.50515-.20029-.75123-.00021-1.32273.60626-2.10442.80173-.43882.10982-.80867-.0731-1.10225-.0998s-.53516.036-.70151.70136c-.2206.88202-.57582,1.45225-.90192,2.10452-.26815.53627-.30058,1.41962-.30058,2.20499 0,.97649-.26465,1.14603 0,2.20477 .17994.72-.0669,1.67036-.20052,2.20477-.20401.81625.20319,1.59256 0,2.4053-.26022,1.04073-.54958,1.40593-.0999,2.30503 .4168.83384.85531,1.01644 1.10215,2.00427 .19846.79432-.30058,1.60901-.30058,2.40528 0,.6883-1.00814,1.51113-1.30275,1.90413-.36903.4923-.80157,1.32873-.80157,2.00426-.0001.54944-1.30471.95304-1.60344,1.10249-.7961.39803-1.2206,1.05937-1.70359,1.70371-.37541.50055-.40083,1.69114-.40083,2.30513 0,.78423-.20051,1.57186-.20051,2.40519v2.40538c0,.81346.19743,1.2147 0,2.00417-.18971.75912-1.10524,1.25421-1.60324,1.50331-.46918.23467-.91664-.0258-1.20251-.40092s-.50108-.91186-.50108-1.20244c.00011-.84784 0-1.75815 0-2.6059 .00011-.67708-.20031-1.47726-.20031-2.20467v-2.50564c0-.98073-.30779-1.43115-.50121-2.20468-.12196-.48788-1.231-1.23115-1.60333-1.60345-.54607-.54615-1.2872-.99442-1.904-1.303-.50726-.25342-1.23954-.93904-1.60333-1.3027-.76441-.76477-1.2341-1.06534-1.60333-1.80406-.38169-.76365-1.37914-.90188-2.20469-.90188-.87474.0001-1.73076-.19578-2.40489-.70138-.48513-.36385-.60136-1.58677-.60136-2.10483 0-1.00542-.12074-1.80715-.30056-2.70574-.14762-.73769-.0607-1.76032.0999-2.40518 .22583-.90383 1.2065-1.61149 1.50306-2.20488 .41473-.82963 1.7318-1.43105 2.4051-2.10453 .64737-.64753.99509-1.5981 1.80375-2.20498 1.02422-.76837 2.08826-1.34448 3.20667-1.90411 .59115-.29552.66909-1.1374.90193-1.60336 .41699-.83425.67505-1.577 1.20261-2.10462l1.80374-1.80408c.51178-.51176 1.946-.4008 2.20469-.4008 .35315,0 .99836,1.8967 1.10213,2.10462 .21946.43869.38601.68161.70161.80172s.80136.0854 1.2025,0c.80196-.16982 1.72562-.59317 2.80583-.90187 .60155-.172 1.32108-1.31206 1.90389-1.60367 .5672-.28347.60126-1.60849.60126-2.30501 0-.91434-.0998-1.39555-.0998-2.20468 0-.45455-1.32726-.96416-1.60344-1.1025-.38693-.19351-.42307-.63847-.30057-1.10229s.42575-.92699.60125-1.10238c.49656-.49685 1.35557-.84003 2.00406-1.00223 .86209-.21555 1.65182-.17458 2.30484-.50118 .70491-.35233.89216-.79185 1.40313-1.3028 .79383-.79401.8736-1.29012 1.10213-2.20477 .16799-.67214.0793-1.7177.20031-2.20467 .20258-.81007.9745-1.5664 1.30287-2.00459 .24128-.32165.34072-.60399.60124-.80172s.59497-.30066 1.20261-.30066c.57829,0 .95381.0258 1.2025.2006s.39445.48842.60125.90178c.29687.59413.0998,1.69744.0998,2.40549 0,.85114-.66147,1.1623-1.10244,1.60336-.39898.39896 1.39776,1.24876 1.60343,1.40305 .31921.23921.14184.75397-.20041,1.3028s-.83987,1.0783-.90193,1.20264c-.26135.52259-.92436,1.04681-1.30265,1.80407-.50347,1.00697-.603,1.15283-2.00427,1.5032-.90863.22696-1.65089.92566-2.20459,1.20244-.39557.19793-.41164.47769-.30068.80183s.28226.68325.40084.80172c.69462.6948.99458.67472 1.90401.90199 1.0801.27019 1.46438-.0515 2.10432.80183 .43491.57991.61464.82808.90193,1.40304 .40804.81656.87927,1.31268 1.10244,2.20468 .0988.39577 1.58697.54317 2.10422.80184 .6732.33657 1.72242.41017 2.30496.70157 .73762.3689 1.07659.59473 1.90389.80173 .66807.16695.8869.49725 1.7036.70147 .48761.12208.78941.15903 1.00208,0s.29296-.47039.40083-.90188c.0896-.3582-.30315-.80234-.70152-1.10229s-.79249-.4465-.90193-.50126c-.83932-.41986-1.16625-.5652-1.70358-1.1024-.43563-.43601-.63069-.81788-.60114-1.10249s.28409-.48459.60114-.80162c.3084-.30839.63964-.2108 1.00229,0s.76925.5688.90183.70147c.3473.3475.75545.25104 1.10223,0s.557-.72462.60136-.90198c.15924-.63725.30057-1.05628.30057-2.00438 0-.99142-.66219-1.15951-.40083-2.20487 .11003-.44075-.26393-.76983-.70162-1.00214s-.95154-.41306-1.20229-.60131c-.8066-.60483-1.19591-.58753-1.60354-1.40307-.29356-.58731-.0936-.89826.20052-1.00182s.67494-.0566.90194,0c.91128.22759 1.0769.67564 1.70337,1.3027 .71335.7132.70872,1.10578 1.50328,1.5032 .76606.3831.76358,1.00223 1.60324,1.00223 .53372,0 .60145-1.61631.60145-2.10473 0-.85669-.40094-1.49074-.40094-2.40528 0-.36283.84624-.9906 1.00219-1.3028 .23686-.47409.21348-.8887 0-1.20264s-.58457-.58444-.80178-.80162c-.57129-.57148-1.06136-.82005-1.40292-1.50342-.39147-.78319-1.22215-1.12194-1.904-1.80375-.10293-.20627-.44437.0103-.80166.0998s-.70974.0669-.90194-.70147c-.18424-.73801.2345-1.73922.40083-2.40538 .18952-.75769.61949-.97384.80179-1.70372 .14296-.57229.45693-.73771.60124-.90177s.17521-.3511-.0998-.90219c-.19258-.38528-1.21855-.80956-1.60333-1.00203-.63758-.31909-1.03831-.83776-1.40302-1.20275-.35131-.35141-.20031-1.86871-.20031-2.40519 0-.40122-.19321-.72298-.50119-.90198s-.67651-.23808-1.00199-.40071c-.57643-.28861-1.23759-.30066-2.10452-.30066-.69255,0-1.76103-.13987-2.4049-.30066-.74021-.18528-1.70843.17654-2.20458.30066-.69296.17324-1.68682,0-2.4051,0-.82133,0-1.1152-.30395-1.90391-.50127-.5084-.12711-1.68033.89015-2.10453,1.10229-.42995.21532-.61432.0556-.70119-.30036s-.10087-.85659-.10087-1.20274v-2.40539c0-.33824-.24716-.51898-.60126-.60122s-.79489-.0998-1.10235-.0998zm86.88176,9.7212c-.42679.0884-.78664.44147-.90194.90188-.13371.53503-.19898,1.29733-.30056,1.70381-.0321.12753-1.98184-.2495-3.10652.20051-.47566.19032-1.15783.48995-1.60332.60133-.61175.15284-.42853.59112-.30057,1.10238 .15973.63909 1.95722.76488 2.50514.90208 .38365.0957.89977.79937 1.30265,1.20265s1.08249.68645 1.50318,1.00203c.32745.24559.67311.97363 1.10235,1.40315 .4456.4458 1.21352.65392 1.80374.80162 .7146.1788 1.16194-.20029 1.90401-.20029 .60549,0 1.13405.30055 1.80386.30055 .69388,0 1.17706-.30055 1.80365-.30055 .51035,0 .71797-.82356 1.00217-1.20254 .37253-.49696.40095-1.26575.40084-1.90433 0-.59082-.19342-1.17485-.30068-1.60356-.12732-.50971-1.13434-.76528-1.40291-1.30279-.33711-.6745-.35729-.84435-1.10224-1.40306-.5081-.38094-1.42885-.81468-1.80386-1.00202-.59568-.29799-1.03027-.54749-1.50317-.90209-.31292-.23488-.78838-.30076-1.30276-.30076h-1.10235c-.14853-.0371-.25856-.0289-.40071,0zm35.2736,12.92831c-.64613.0844-.80155,1.05782-.80145,1.90412s-1.14351,1.63433-1.50328,1.90401c-.4948.37117 2.00694,1.35375 2.20468,1.40326 .84573.21141 1.54858.9309 2.40499,1.10228 .61773.12362 1.64092.79668 2.40512,1.10239 .43831.17549.57479.81819.7013,1.50341 .12702.6849.20042,1.38194.20042,1.80396 0,.87161 0,1.7842.20051,2.60569 .21422.8567.4554,1.18412.20042,2.20457-.12177.48779-.18086.86009-.20042,1.20275s.034.6355.40073,1.00214c.65849.65875 2.51227.30755 3.30714,1.10238s1.40095,1.3203 2.30472,2.40529c.46353.55644-.0433,1.56054.60117,2.20477 .4421.4423 1.90802.52537 2.4051.40092 .35028-.0875.51775-2.07086.60125-2.40539 .10487-.41934.72126-.63879 1.4029-.70147s1.46498.0309 1.80376.20051c.60247.30128.6664,1.24227.50119,1.90412-.12465.49859-.0196.82664.20032,1.10249s.54422.52278.90192.70168c.65952.32958 1.54147.21574 2.00427.0998 .73516-.18393 1.06497-1.22807 1.40282-1.90423 .22912-.45823.32702-.80357.40082-1.10227s.12517-.56355.60137-.80184c.67381-.33709.98767-.85916.80156-1.60366-.20248-.81088-.42987-1.56104-.80156-2.30482-.49452-.98886-1.53839-1.35437-2.40501-2.00427-.66219-.49715-.59456-.67461-.80186-1.5034-.13897-.55738-1.09381-.99792-1.7034-1.3029-.5612-.2806-.92899-1.26615-1.60333-1.60356-.97975-.48985-1.91925-.63756-2.80594-1.30259-.90151-.67626-1.69329-.91918-2.60542-1.60367-.88154-.66122-1.65499-1.45451-2.4051-2.20477-.73959-.73976-1.46375-1.06297-2.00416-1.60336-.66342-.6638-1.70266-1.05205-2.405-1.40314-.90758-.45373-1.41722-.98784-2.20458-1.30291-.95112-.38043-1.62813-.48233-2.50537-.70158-.29964-.0751-.63685-.34193-.90171-.50095-.11334-.0289-.20845-.0124-.30089,0zm-87.58303,47.60364c-.26805.26823-.76309.0309-1.10225.20041-.36357.18197-.51941.8749-.60125,1.20274-.13464.53802-.0875,1.0395-.20051,1.60355-.12827.64096.0638,1.65863.20051,2.20467 .10808.43232-.5857.97085-.80186,1.40307-.22226.44507-.50749.81036-.80148,1.20263-.34524.46052-.29264,1.46275-.40093,2.00428-.12898.64526-.16068,1.14366-.30057,1.70391-.10622.42459-.0998.84414-.0998,1.3028 0,.34687.82368.56199 1.10233.70157 .29892.14936.45703-.20608.60125-.60133s.26465-.86605.50099-1.10248c.48359-.48357.73435-.70148 1.40292-.70148 .43758,0 .90624-.0999 1.4029-.0999 .27784,0 .84831.17354 1.10234.30057 .48237.24116.77677.47605 1.10224.80173 .38767.38774.27371.84516.90204,1.00233 .51129.12774.83471.40082 1.4028.40082h1.70382 1.30254c.61072,0 .60136-.38857.60136-1.00234 0-.53915.0782-.91382.2003-1.40295 .12477-.49952-.10786-.83219-.2003-1.20285-.10882-.4352-.82319-.92328-1.10245-1.20244-.62276-.62283-1.30636-.51568-1.50308-1.3031-.0917-.36602.0999-.91032.0999-1.30259 0-.38177.0999-.77363.0999-1.20254 0-.513-.32219-.7446-.50099-1.1024-.221-.44197-.63306-.4008-1.10245-.4009-.44108,0-1.06673-.11312-1.50307-.20051-.49327-.0988-.76709-.0659-1.10214-.40092-.36718-.36695-.70161-.31013-.70161-.90188 0-.30961-.21226-.64847-.30057-1.00213-.10511-.42037-.19054-.5689-.50119-.80173-.18642-.13999-.69236-.0998-.90182-.0998zm149.01159,3.80833c-.51191.074-.5291,1.93212-1.10225,2.50554-.5296.52968-1.07033.66936-1.50317,1.10208-.74392.74429-1.63997,1.4399-2.4051,2.20508-.65551.65578-.76308,1.95775-1.10224,2.80621-.24274.60698 0,1.93613 0,2.60569 0,.85124-.97718,2.19232-1.30276,3.0063-.20424.51095-.37613.74439-.7014.90209s-.75041.16252-1.30277.30065c-.89749.2243-1.62298.41059-2.40499.80184-.57109.28543-1.01032,1.51956-1.30266,2.10462-.30273.60564-.13568,1.7452-.30058,2.40508-.26752,1.06997-.20557,2.27952 0,3.30707 .16788.84043.29976,1.60006.50099,2.40549 .21772.8707-.16099,1.64607-.30068,2.20456-.21049.84261-.50016,1.60038-.70151,2.4054-.20432.81799.80178,1.63516.80178,2.50554 0,.91712.2351,1.76505 0,2.70585-.15308.61192.13741,1.5067.50099,2.40518s.85766,1.82702 1.00197,2.40518c.0999.39835-2.07621,3.03687-2.30474,3.60793-.29017.72546-.71221,1.68838-1.20239,2.50554-.49542.82592.0999,1.75765.0999,2.60569 0,.88367.20019,1.8613.20019,2.80611 0,1.16085.20053,2.35217.20053,3.50778 0,1.03919-1.05479,2.51521-1.30266,3.50746-.23552.94213.0165,2.13808.40095,2.90657 .28626.5729-.23369,2.03555-.40095,2.70563-.28225,1.12854.30059,2.39283.30059,3.50757v.50128c0,1.54716 1.26384,3.61379 1.60333,5.31144 .18569.92885-.33537,1.44195-.50099,2.10472-.25405,1.01593.29614,1.78585.50099,2.60549 .33206,1.32843.0648,2.47517-.50099,3.60793-.28566.57157-.29163,1.00583-.20043,1.5033s.30212,1.00564.50099,1.50341c.38447.96127.0402,2.2656.30068,3.30717 .22152.88644-.0999,2.49905-.0999,3.50757 0,.7271-.29316,1.07058-.50098,1.5033s-.32033.9234-.0999,1.80397c.0525.21193.0473.48943.0999.70137 .18509.74028 1.72717,2.29782 2.4048,2.80619 .47299.35471.61143.73544.70151,1.10249s.10087.7336.10087,1.30291c0,1.20244.13073,1.93437.90172,2.70584 .47156.47174 1.38202.40627 1.90421,1.10249 .42843.57137.40063,2.17513.40063,2.90615 0,.89231.0237,1.4047.30077,1.90412s.78829.98885 1.40283,1.60356c.26485.26485.53682.43663.80167.70147 .62913.62943.74226,1.74447 1.40291,2.40519 .61297.61325 1.5671,1.38493 2.4052,1.80405 .50562.25281 1.03235.0772 1.50297-.2005s.86549-.64908 1.20271-.90208c.98767-.74058 1.72066-1.43733 2.20457-2.40518 .65562-1.31155 1.81158-2.74497 2.10424-4.20905 .11259-.56313.27009-.9272.60135-1.20264s.84942-.47493 1.30264-.70158c.80919-.40462 1.57369-1.28654 2.00417-2.00437 .47423-.79061 1.32705-1.32194 2.20469-1.10229 .67732.16943 1.1497.66946 1.50296,1.20244s.66815,1.06821.80198,1.60377c.2142.8574-.65313,1.9074-1.00229,2.60548-.58489,1.17022-.31097,2.0513-1.10223,3.10676-.70666.94233-1.06045,2.32109-1.50318,3.20691-.59786,1.19627-.44428,3.02328-.70142,4.30951-.11436.57188-.52301,1.70865-.80176,2.40518-.32466.81202-.70151,2.35567-.70151,3.20701 0,1.1272-1.17749,2.05419-1.70337,3.10666-.6237,1.24753-1.09011,2.52489-1.60345,3.80844-.38848.97157-.8626,2.00561-1.40282,2.90625-.47989.80029-.88514,1.6365-1.10243,2.50555-.20012.80069-.72931,1.45862-1.10214,2.20477-.35328.70642-.41679,1.43444-.80178,2.20489-.71509,1.43022-2.31122,3.91444-3.50733,5.11101-1.03122,1.03168-2.36898,2.43299-2.9061,3.50758-.35255.70538-.57211,1.24474-.90203,1.90432-.48082.9623-1.12282,2.04555-1.70339,3.20692-.40597.81202-1.10799,1.21375-1.50327,2.00457-.40989.81985-.5962,1.15828-.7013,1.60325 22.91306-26.85011 36.87704-61.67509 36.87704-99.71718 0-19.41418-3.74666-37.91301-10.32149-55.0199-.67011.0525-1.85563.30066-2.60573.30066-.48276.00021-.84108.37261-1.10213.80162s-.41545.96076-.50109,1.30301c-.23748.95016-.18663,2.02897.0999,3.0065s.76667,1.86891 1.30265,2.40518c.40629.40627.65199.8007.60136,1.10229s-.354.50116-1.00209.50116c-.70182.00012-1.11181-.11198-1.40292-.30055s-.44364-.44363-.80166-.80183c-.67907-.67933-1.29711-1.24968-2.20468-1.70361l-2.20458-1.10249c-.51531-.25773-.9534-1.70638-1.20261-2.20467-.39169-.78361-.70121-1.5732-.70121-2.50575-.0001-.63343-.64613-1.59234-.90201-2.10442-.30984-.61985-.73981-1.27891-1.10226-2.00426-.40514-.81059-.77613-1.35879-1.50337-1.90412-.0927-.07-.12703-.11085-.20032-.10087zm-189.99724,83.48212c-.11138.0484-.2488.14832-.40094.30055-.44346.44343-.3399.35707-1.10224-.0998 .16511,0 2.09238,2.31821 2.50515,3.0066 .19445.32393.74928.42418 1.30277.40082s1.08627-.13721 1.40302-.20051c.70943-.14194.89522-.56509.80155-1.00213s-.46682-.93493-.80155-1.10249c-.8688-.43468-1.46334-.76685-2.40511-1.00204-.77903-.19505-.96904-.44734-1.30265-.30066zm1.80375,6.71438c-.59272.10715-1.48475.48263-1.80375.80183-.25147.25157-.0433.72247.20031,1.20264s.59178.88273.7015,1.10249c.30716.61429 2.1279.80163 2.80595.80163 .56974,0 .8279-.25743.90171-.60122s-.0134-.75366-.0999-1.10249c-.15686-.62767-.93197-1.23281-1.30265-1.60346-.37736-.37755-.0433-.0865-.90202-.60142-.11859-.0298-.30335-.036-.50089,0zm-8.11704,5.41199c-1.14599,0-2.22125.0329-3.30691.90198-1.31779,1.05423-2.9136,2.96924-3.80782,3.30716 .19775.49459.35595.92289.7013,1.10219s.86879.16707 1.40301-.0998c.87559-.43787 1.45831-.62891 2.20469-1.00203 .77368-.38701 1.36957-.70147 2.20459-.70147 1.07157,0 1.78666.37137 2.70557.60122 .69472.17365 1.22422.41151 2.00418.80173 .81113.40564 1.55484.75304 2.20468,1.40315 .6313.63127 1.79675.94665 2.40499,1.40284 .62492.46895 1.77781.9762 2.40511,1.60356 .40658.40679 1.26631,1.28457 1.9039,1.60366 .6731.33648 1.24759.26772 1.80375.0999s1.13115-.40092 1.904-.40102c.56378,0 1.51935.0556 2.40511.0998s1.66118.0421 2.00405-.30067c.21309-.21306.50615-.50249.60126-.80173 .0947-.299-.0103-.55303-.60126-.70137-.84715-.21202-1.59355-.47367-2.50515-.70167-1.26158-.31538-.86219-.8819-1.90401-1.40305-1.18005-.5902-1.52962-.75808-2.90609-1.1025-.90162-.2254-2.2685-.36426-3.00635-1.10228-.66362-.6639-1.01958-1.86274-1.70338-2.20488-1.19602-.59802-2.1106-1.42415-3.50734-1.70371-1.39407-.27884-3.09878-.70158-4.50953-.70127h-1.10235zm26.75609,9.11977c-.2276-.0206-.47465.0433-.70163.0999-.93156.23294-3.36405.0144-3.50734.30056-.15882.26474-.36284.52546-.50089.80172-.32229.64455-.26814.8534-.0999,1.00224s.48382.18311.80178.50107c.11899.11929.40186.5095.50098.90197s0,.79998-.40083,1.00225c-.0906.0453-2.0407,1.02941-2.00416,1.10239 .26424.52844.53547.70137 1.70349.70137 .97203,0 1.64069.12794 2.50525.30075 .5817.11632 1.85399.43859 2.40501.30077 1.30306-.32588 2.27694-.67379 3.1066-1.5034 .69987-.70013.71078-.37807 2.00416-.70147 .44747-.112.98357-.0917 1.30267-.20041s.5011-.33525.5011-.90209c0-.60173-.69349-1.40295-1.50329-1.40295-.70892,0-1.65242.0258-2.30464-.30066-.90686-.45372-.91335-1.23064-2.00427-1.50331-.5122-.12824-1.12106-.43889-1.80364-.50116zm11.42374,3.50748c-.31572-.0793-.4835.37857-.50091.90228s.14784,1.09262.20033,1.30269c.11622.46515 1.74702.70138 2.30484.70138s1.00394.0165 1.2025-.0999 .13968-.32186-.10087-.80173c-.33816-.67677-.5363-1.47077-1.2023-1.80396-.54999-.27493-1.30462-.2003-1.90412-.2005zm9.01884.70157c-.1642.12156-.25694.56303-.20041,1.00224s.28523.82282 1.00218,1.00224c.70624.17672 1.74825.11393 2.20458,0 .37057-.0927.22677-.39475-.0999-.80194s-.76048-.83117-1.10222-1.00183c-.41031-.20545-1.19345-.20071-1.7036-.20071-.0411-.0206-.0535-.035-.0999,0zm-32.76846,1.00224c-.13341.0102-.36863.0998-.50109.0998-.13341-.10932-1.54693-.0278-2.20449.30096-.45951.22954-.75957.45259-.90203.70127s-.14967.60225.0999,1.10249c.26104.52187.29418.86648.40103,1.1024s.30994.35315.90192.50106c.96144.24035 1.82682.53977 2.70549.0999 .67926-.33978 1.00207-1.32102 1.00227-2.10452 0-.96714-.27062-1.49591-1.10244-1.70392-.12857-.032-.26743-.10818-.40083-.0999zm36.97731,3.60783c-.51241.10889-.42359.87923.0998,1.40314 .62493.62511 1.2796.41245 1.70339.20052 .46156-.23098.28585-.61368-.0998-.90198s-.97265-.49521-1.00208-.50107c-.30221-.15121-.53073-.23685-.70161-.20061zm3.10639,4.40966c-.26895.20843-1.10212.89178-1.10212,1.3029 0,.39143.40752.38834.90182.30065s1.02195-.26041 1.10234-.30065c.46403-.23222-.37356-.96406-.80167-1.3029-.0154.0103-.0751-.0124-.10088,0zm.60136,3.60803c.0165.0278.0813.16972.0999.20029 .0751-.0629.112-.19515.0999-.20029-.0103,0-.11252-.0442-.20052,0zm.0999.20029c-.3539.29685-1.46529,1.05134-1.60322,1.60346-.11745.46998 1.95681-.0762 2.00416-.0998 .46537-.23283-.0937-1.01676-.40094-1.50341zm4.20896,1.1023c-.0453.47513-.54505,1.77092-.0998,2.10473 .6561.49221.95534.35222 1.10234.0998s.13133-.6392 0-.90187c-.25097-.50199-.54167-.83272-1.00209-1.303z" fill="#3465a4"/>
  <g transform="matrix(.72682 0 0 .72682 66.837 158.21)">
   <path d="m359.08 457.22c-8.8987 1.2641-16.727 4.7681-22.519 9.5791-6.4057-2.2683-13.933-3.065-21.784-1.9498-16.816 2.3888-29.792 12.794-32.475 24.849-1.5321 0.074-3.0896 0.21992-4.6532 0.44203-20.235 2.8745-34.911 17.365-32.78 32.36s20.261 24.818 40.495 21.944c4.6915-0.66645 9.0869-1.9595 13.041-3.7359 7.1695 8.3776 20.715 12.957 35.368 10.875 10.283-1.4608 19.126-5.9245 25.062-11.926 0.45925 4.1835 0.18909 8.5179-0.92889 12.834-3.7933 14.644-16.148 24.797-30.315 26.491 17.136 1.6156 33.395-9.3941 37.849-26.591 1.5001-5.7913 1.4876-11.622 0.21054-17.068 7.2489 3.7512 16.593 5.3662 26.443 3.9669 20.235-2.8745 34.912-17.358 32.781-32.353-1.5744-11.082-11.889-19.337-25.332-21.732 0.30063-1.9858 0.32098-4.0096 0.0323-6.0417-2.1304-14.995-20.261-24.818-40.495-21.944z" fill="url(#a)"/>
  </g>
  <path d="m13.688 664.76c6.881-30.62 37.293-49.873 67.915-42.993 0.87618 0.19686 1.7295 0.4299 2.5868 0.66473-0.13058-4.6373 0.30467-9.3492 1.3685-14.083 6.881-30.62 37.293-49.873 67.915-42.993s49.873 37.29 42.992 67.911c-3.7528 16.7-14.519 29.984-28.484 37.524 13.395 8.9023 22.42 23.177 24.761 39.085 4.3177 0.58712 8.7405 0.81514 13.245 0.63666 19.045-0.75456 36.159-8.5101 48.97-20.682-12.815 20.282-35.04 34.124-60.825 35.145-0.39859 0.0158-0.79847 0.0142-1.1959 0.0237-0.22858 1.8602-0.54413 3.7227-0.96372 5.5898-4.3584 19.395-18.162 34.217-35.472 40.737 10.643 13.054 15.412 30.685 11.432 48.393-6.8811 30.62-37.289 49.853-67.91 42.973-24.07-5.4079-41.103-25.336-43.951-48.493-26.682-9.4991-42.673-37.639-36.306-65.97 2.3174-10.312 7.2965-19.331 14.059-26.5-16.534-13.134-25.076-34.986-20.136-56.969z" fill="#f57900"/>
  <path d="m223.82 913.82c-9.2262-13.183-6.0169-31.355 7.167-40.581 0.37724-0.26397 0.76029-0.50681 1.1454-0.75049-1.8023-1.5522-3.4374-3.3446-4.8638-5.3827-9.2263-13.183-6.0169-31.355 7.167-40.581s31.357-6.0166 40.583 7.1666c5.0319 7.1899 6.3469 15.857 4.3805 23.753 8-2.0003 16.526-0.48941 23.363 4.1182 1.7138-1.4331 3.3279-3.0301 4.8163-4.7986 6.2923-7.4764 9.2649-16.639 9.0774-25.697 3.2591 11.861 0.82749 25.062-7.6919 35.185-0.1317 0.15647-0.27044 0.30741-0.40409 0.46129 0.62591 0.72909 1.2227 1.492 1.7853 2.2958 5.8439 8.3501 6.6927 18.7 3.1842 27.51 8.6229 0.47625 16.951 4.759 22.286 12.383 9.2262 13.183 6.0109 31.347-7.173 40.573-10.363 7.2519-23.798 6.8225-33.557-0.0967-12.816 6.8283-29.002 3.1678-37.538-9.0296-3.1072-4.4398-4.8049-9.4413-5.1854-14.48-10.688 1.728-21.919-2.5828-28.543-12.047z" fill="#73d216"/>
 </g>
</svg>
